# xmcd
#
# Track frame offsets:
# 150
# 11459
# 27659
# 38961
# 54536
# 70637
# 88349
# 99366
# 135098
# 148960
# 163135
# 182785
# 194624
#
# Disc length: 2773 seconds
#
#
# Revision: 0
# Processed by: cddbd v1.4PL0 Copyright (c) Steve Scherf et al.
# Submitted via: FreeRIP 2.35 
#
DISCID=b70ad30d
DTITLE=Mojo Collins - American Blues Guy
DYEAR=1999
DGENRE=blues
TTITLE0=American Blues Guy
TTITLE1=Fallen Angels 9-11
TTITLE2=Here Comes the King
TTITLE3=Fatback and Biscuits
TTITLE4=Wright on Brothers
TTITLE5=Down to the Ocean
TTITLE6=Devil's Credit Card Ball
TTITLE7=Higher One
TTITLE8=Valentine Blues
TTITLE9=Japaneze Blues
TTITLE10=He's the One
TTITLE11=Can't afford to die
TTITLE12=American Blues 2
EXTD=Mojo Collins
EXTT0=
EXTT1=
EXTT2=
EXTT3=
EXTT4=
EXTT5=
EXTT6=
EXTT7=
EXTT8=
EXTT9=
EXTT10=
EXTT11=
EXTT12=
PLAYORDER=
